<?xml version="1.0" encoding="UTF-8"?>
<svg xmlns="http://www.w3.org/2000/svg" width="512" height="292" viewBox="0 0 512 292">
  <defs>
    <style>
      .cls-1 {
        fill: none;
      }
    </style>
  </defs>
  <g id="Black">
    <g>
      <path d="M64.03,279.86c-4.68-.47-11.1-3.91-14.59-7-11.25-9.96-12.11-19.97-11.33-34.36.5-9.3,2.34-21.47,7.08-29.57,1.42-2.43,2.24-2.81,4.82-1.29,10.61,6.22,1.78,24.06,2.32,33.56.38,6.55,2.84,14.79,8.83,18.23,13.96,8.02,26.68-6.98,28.74-19.82s-.96-21.05-11.29-27.94c-16.4-10.94-35.57-19.36-33.97-43,1.18-17.54,26.44-37.63,43.88-31.95,5.51,1.8,8.34,6.63,10.74,11.52,1.2-.92,2.42-1.54,3.46-2.68,2.79-3.07,4.84-7.73,7.58-10.65.2-.21,1.45-1.26,1.6-1.24,1.44,1.08,2.19,2.91,3.29,4.21.7.84,1.66,1.38,2.4,2.21,3.13,3.54,3.33,8.72,4.32,13.14.94,4.18,2.18,8.03,3.57,12.07l.63.03c2.19-6.83,3.62-13.92,6.61-20.48,1.37-3,6.76-12.97,9.96-13.64,4.56-.95,4.06,4.54,4.87,7.52.69,2.54,1.95,4.3,1.72,7.12-.09,1.06-.67,2.08-.3,3.16l10.75,25.14.63-.33c2.81-15.51,4.98-31.14,15.6-43.51,1.31-1.52,3.45-4.21,5.28-1.83.9,1.16,1.22,4.96,1.72,6.72s1.23,3.53,1.93,5.17c1.21,2.85,3.3,7.79,4.85,10.31.16.27,1.52,1.91,1.67,1.98.38.08.23-.09.33-.24.48-.81.8-1.75,1.27-2.57,2.64-4.6,8.42-14.29,13.34-16.22,5.54-2.17,9.51,1.51,12.92,5.38,2.84-1.01,6.49-4.38,8.22-.16,3.25,7.92,4.52,18.86,5.83,27.37,1.33,8.66,2.31,17.39,3.71,26.03.43,2.63,1.09,8.1,2.75,10.11,1.76,2.14,6.24,1.67,6.93-1.14.73-2.95.17-7.57.07-10.66-.42-13.43-1.35-26.86-1.71-40.31-.06-2.28-.34-4.58-.2-6.9.1-1.65.83-7.66,1.49-8.87.57-1.05,3.14-2.68,4.32-2.32,1.07.32,2.9,4.17,3.63,5.21,2.27,3.23,3.7,4.17,4.36,8.5,1.32,8.64,1.39,17.93,2.53,26.64.06,10.45.05,20.86.37,31.29.08,2.75-.01,5.7.19,8.44.17,2.28.77,3.9,3.38,3.93,8.24.11,16.14-1.29,24.54.02,4.63.72,4.82,4.1,7.26,7.33.3.4.93,1.45,1.4,1.47.6.03,3.35-1.16,4.07-1.49.67-.31,3.59-1.82,3.88-2.26.25-.39.3-1.07.41-1.52-1.93-15.18-4.22-30.31-6.12-45.49-.97-7.77-1.91-14.73-1.94-22.62-.01-3.55-.6-7.34,1.64-10.44,1.17-1.61,2.55-1.46,3.22.4,1.6,4.49,2.31,12.28,2.82,17.14,2.36,22.85,2.99,46.83,8.31,69.21.07.31.8,2.86,1.09,2.65.59-2.13,2.38-3.29,4.52-3.45,7.06.55,13.85,1.17,20.91.95,2.28-.07,4.55-.14,6.82-.18-1.2-6.05-3.3-11.93-4.55-18-3.98-19.37-.65-42.21,11.57-58.16,8.45-11.03,22.45-11.45,33.08-3.16,2.86,2.23,5.43,5.58,8.18,7.56,2.11,1.52,3.63.23,5.08-1.44,3.71-4.28,3.82-12.39,11.24-12.39,6.39,0,6,5.83,6.87,10.42,1.07,5.64,3.19,9.32,5.35,14.41,4.08,9.62,6.48,19.84,9.95,29.68.3,0,.32-.66.36-.89,2.17-13.15,1.52-23.73,9.01-35.51,1.29-2.03,2.29-2.28,4.6-1.65s4.1,2.23,5.13,4.47c2.79,6.1,5.16,14.15,7.4,20.62,1.86,5.38,3.65,10.79,5.37,16.22.67-.14.69-.64.76-1.25,2.45-20.43,3.2-41.13,5.38-61.59,1.52-14.32,8.08-29.66,19.1-39.24,1.87-1.63,6.02-5.03,7.15-.99,1.26,4.51,1.6,10.88-.48,15.14-3.4,6.94-8.66,13.2-9.44,21.27-.08.87.08,1.82,0,2.68-.55,5.42-2.46,10.57-3.74,15.83-3.8,15.6-6.86,31.86-9.47,47.72-1.61,9.75-2.57,20.28-4.7,29.84-.24,1.06-.52,2.15-.85,3.18-1.25,3.95-2.24,5.96-6.1,2.54-7.89-6.98-10.73-23.84-14.29-33.68l-1.35-3.16c-1.12,7.23-1.86,14.51-2.91,21.75-1.01,6.99-1.53,13.86-5.32,20.01-2.27,3.7-5.59,4.36-9.67,3.27-3.5-.94-5.34-2.99-6.21-6.46-2.18-8.79-3.21-18.84-4.95-27.86-2.77-14.38-7.24-28.75-8.96-43.23-.49-4.12-.58-8.3-1.35-12.37-.45-.09-.31.06-.43.25-.48.75-.79,1.51-1.39,2.25-1.96,2.39-4.82,3.84-7.78,4.61,4.46,8.59,7.95,17.57,10.35,26.97,4.94,19.34,5.5,36.17-8.91,51.51-8.38,8.92-20.33,10.54-31.63,6.47-1.55-.56-4.51-2.23-6-2.08-1.08.11-.71.96-1.25,1.45-.71.64-4.99,1.09-6.26,1.42-2.43.63-4.55,1.66-7.13,2.08-11.92,1.93-21.47-3.37-32.64-5.26-1.97-.33-3.95-.16-5.88-.46-3.17-.49-1.19-4.47-1.07-6.61.17-3.18-.8-6.49-1.73-9.5-4.06,1.88-7.77,4.5-11.91,6.23-7.39,3.08-14.53,3.2-22.3,1.58-5.59-1.17-10.56-3.62-16.28-1.57-1.44.52-5.47,2.87-6.1.33-.54-2.18-.42-5.65-.63-8.01-.47-5.46-1.11-10.93-1.34-16.41l-1.07.18c-3.29,3.9-5.71,7.23-11.42,6.06s-9.81-5.71-12.19-10.85c-3.9,3.36-7.81,6.77-13.11,7.62-10.3,1.66-20.91-6.75-25.65-15.31-3.2-5.78-1.57-18.83-.17-25.28.83-3.83,2.07-7.54,3.34-11.23-3.57-2.32-5.19-6.76-6.35-10.68-.25-.06-.23.2-.28.38-3.74,12.29-6.01,25.52-9.98,37.8-.97,3-3.93,7.09-4.13,9.68-.16,2.01,1.29,4.9-1.82,4.91-3.15.01-6.58-2.7-6.99-5.88-.35-2.66.37-3.56-.59-6.51-1.42-4.34-3.39-8.88-5.1-13.13-2.38-5.92-4.91-11.84-7.48-17.66-.34-.08-.3.13-.38.38-.99,3.26-1.28,5.39-2.94,8.57-2.61,5-10.04,12.63-10.57,17.64-.18,1.7.44,4.12-.79,5.49-.9,1.01-5.09,2-6.44,1.88-1.87-.16-2.5-1.67-3.19-3.14-2.15-4.64-4.14-10.56-5.63-15.48-3.04-10.03-4.17-20.43-6.14-30.7-2.4,3.79-4.88,8.06-9.88,8.45,1.09,10.72-7.86,27.58-20.4,25.27-.68-.13-1.75-.38-2.32-.75-.99-.65-1.78-2.8-.98-3.8.76-.94,4.52-1.61,5.97-2.28,13.42-6.22,14.8-28.13-3.54-21.96-8.92,3-15.57,12.61-16.34,21.85-.63,7.58,5.55,10.89,10.86,14.81,7.62,5.63,16.03,10.7,23.47,16.46,22.63,17.52,14.87,47.48-4.01,64.46-5.33,4.79-18.47,13.28-25.54,13.91-.82.07-2.26.08-3.07,0ZM209.5,137.15c-1.19.2-2.14,1.48-2.79,2.39-1.87,2.59-3.44,5.91-5.14,8.68-2.16,3.54-4.47,6.62-6.26,10.44-4.54,9.71-7.85,27.18-2.23,36.84,7,12.02,28.32,14.09,27.61-3.61-2.18-15.33-3.64-31.36-6.62-46.54-.35-1.76-1.49-6.85-2.91-7.83-.53-.37-1.01-.48-1.65-.37ZM371.34,152.7c-8.74,1.18-14.88,17.66-16.56,25.08-3.53,15.54-.83,36.66,9.98,48.93,9.39,10.65,17.86,9.24,29.6,3.29,8.13-4.12,7.53-11.99,9.07-19.86-1.97-15.51-4.64-31.72-13.34-45.01-3.87-5.91-10.91-13.5-18.75-12.44Z"/>
      <path d="M12,28.32c1.31-3.55,4.43-6.13,8.36-5,12.68,3.64,21.35,22.66,25.43,34.06,1.07,2.99,3.16,8.27,2.85,11.3-.27,2.63-2.12,4.04-2.27,6.53l5.27,13.93c1.96-9.97,3.63-20.04,5.95-29.93,1.86-7.96,6.27-23.01,14.32-26.75,4.81-2.23,2.76,3.3,2.5,5.57-.97,8.53,4.26,19.46,7.56,27.31,3.72,8.82,7.82,17.56,12.87,25.7,2.4,3.87,5.04,7.83,8.14,11.14.89-1.86,2.04-3.56,2.92-5.43,5.9-12.66,10.69-29.31,13.15-43.07,1.67-9.33,2.44-27.7,7.01-35.21,1.1-1.81,4.54-5.54,6.34-2.57,1.21,2,1.74,6.02,2.75,8.38,1.6,3.75,3.71,7.1,5.23,11.08,1.61,4.22,2.66,8.97,4.43,13.03,1.32,3.03,3.06,5.19,5.7,7.16.41.07.22-.08.3-.26,3.04-6.82,4.9-12.66,9.78-18.63,16.13-19.74,44.62-13.7,56.09,7.44,2.31,4.26,3.73,8.85,5.44,13.36.69.04,9.42-7.91,10.57-9.01,6.17-5.89,10.08-10.83,10.47-19.86.16-3.7-1.17-4.26-2.01-7.21-1.23-4.27,1.22-10.22,6.43-9.31,2.48.43,6.33,4.96,7.75,7.03,4.47,6.54,8.59,12.13,11.39,19.7,5.45,14.74,7.14,31.54,8.12,47.14l-.11,13.54.49.1c6.14-.69,13.32-2.77,19.48-2.22,3.49.31,6.31,2.79,9.66,3.78,5.67,1.67,10.77.65,16.04-1.7,1.34-.6,4.12-1.82,4.71-3.16.73-1.67-.24-4.81-.62-6.64-3.2-15.71-8.84-31.35-12.75-46.93-1.44-5.73-2.04-12.45-.97-18.32.31-1.71,1.2-2.61,2.83-3.12,3.92-1.25,9.65-2.08,13.82-2.88,10.66-2.03,21.86-4.08,32.73-3.35,2.05.14,3.85.77,5.82,1.09,7.5,1.23,14.92-.42,22.41-.9,1.41.17,2.33.96,3.06,2.13,1.46,2.37-.12,2.24-2.19,2.77-9.06,2.31-19.55,3.52-28.9,3.55-4.8.02-7.7.8-12.31,1.5-6.84,1.04-13.73,1.89-20.6,2.72.14,3.2,1.83,5.98,2.88,8.91,1.6,4.46,2.77,9.06,3.78,13.69.68,3.11,1.04,6.87,1.88,9.83.58,2.05,3.29,2.17,5.19,2.29,10.95.73,23.24-2.83,34.15-1.13,1.44.22,6.73,2.24,7.37,3.38.14.25.62,1.84.61,2.09-.01.5-1.35.8-1.82.85-3.77.41-8.53-.28-12.49-.2-5.6.11-11.3.61-16.85,1.38-2.58.36-5.13,1.02-7.71,1.31-2.12.24-4.32.15-6.44.48l-.13.19c1.04,8.3,2.82,16.09.51,24.36-.94,3.35-2.79,5.78-3.78,8.69-.52,1.51-.57,5.81-2.01,6.44-1.76.76-4.52-2.63-5.29-4.02-.37-.68-.44-1.99-1.27-1.99-9.6,2.77-19.54,3.51-29.29,5.67-8.77,1.94-17.31,4.76-26.03,6.8-8.24,1.92-12.61.53-18.99-4.79-5-4.18-8.2-8.53-8.56-15.24s-.3-13.59-.38-20.15c-.07-5.77.42-12.2,0-17.86-.02-.29.15-.56-.29-.48-5.59,4.59-10.64,10.38-17.72,12.7l-3.4,17.61c-2.04,3.18-3.18,9.17-5.38,11.9-2.67,3.32-7.89,8.11-11.13,11.13-6.3,5.87-11.17,8.91-19.64,11.07s-15.87,3.07-23.91-.55c-17.38-7.81-18.95-25.03-17.21-42.09.65-6.35,2.3-12.49,4.05-18.59-6.03-1.89-7.69-8.16-11.25-12.59-3.2,12.19-5.96,24.5-9.17,36.69-1.66,6.29-3.15,13.16-6.25,18.89-5.23,9.67-16.98,19.35-28.68,15.74-5.82-1.8-5.11-5.99-6.73-10.74-2.82-8.31-6.83-16.98-10.08-25.23-.89-2.26-1.71-4.55-2.53-6.84l-.5-.12c-2.3,7.23-4.16,14.61-6.34,21.88-1.07,3.55-2.1,7.37-3.36,10.84-1.12,3.09-3.97,8.72-6.06,11.21-1.67,1.99-7.74.42-9.93-.42-8.33-3.18-8.94-9.39-12.2-16.59-2.99-6.6-6.79-12.88-9.25-19.73-1.37-3.81-2.19-7.77-3.31-11.65-3-10.33-7.64-22.77-8.97-33.25-.4-3.16-.12-6.59-1.54-9.5v-1.92ZM179.94,37.01c-5.62.51-10.87,4.51-12.45,10.01-.69,2.42.18,5.4-.2,8.05-.28,1.95-1.54,3.97-2.03,6.03s-.65,4.43-1.08,6.59c-2.07,10.41-4.23,18.95-1.77,29.71,1.51,6.57,8.63,11.48,15.34,10.72,11.79-1.33,21-3.4,24.45-16.05,1.73-6.33,2.22-16.08,2.55-22.78.41-8.42-2.57-13.45-5.98-20.69-3.16-6.72-11.2-12.27-18.82-11.58Z"/>
      <path d="M438.38,86.26c-1.55-7.12-3.71-14.19-3.08-21.59.13-1.53.68-2.21,1.86-3.13.5-.1,1.98,1.49,2.14,2.03l8.08,36.44c.48,3.89-2.47,8.35-6.76,6.37-3.3-1.53-5.4-4.71-7.39-7.58l-9.06-13.68c-.24,5.21-.66,10.23-1.63,15.35-.32,1.68-1.22,6.73-2.05,7.93-1.84,2.66-4.76-3.04-5.14-4.58-.89-3.65.87-5.74,1.66-9.06,2.14-9.01-.36-19.45-.53-28.72-.06-2.99-.21-6.79,4.08-5.04,3.72,1.52,6.19,6.02,8.17,9.29,3.22,5.32,5.91,11,9.64,15.98Z"/>
      <path d="M443.18,52.3c.82-2.07,1.13-4.33,2.27-6.27,3.8-6.43,7.27,4.91,7.52,7.9s-.64,6.27-1.4,9.15c-.52,2-1.71,6.72-2.59,8.34-.2.36-1.54,1.77-1.87,1.75-1.62-1.55-1.76-3.91-2.01-6.01-.57-4.76-.69-9.61-1.15-14.39-.02-.44-.39-.49-.77-.48Z"/>
      <path d="M403.07,53.46c1.1-.28,1.83.69,2.48,1.43,2.47,2.83,3.49,6.09,4.96,9.43,1.59,3.62,2.97,4.92,1.75,9.36-.58,2.1-2.7,5.82-4.64,2.54-.77-1.29-1.71-4.08-2.27-5.6-2.04-5.53-3.69-11.26-2.29-17.17Z"/>
    </g>
  </g>
  <g id="Border">
    <rect class="cls-1" width="512" height="292"/>
  </g>
</svg>