<?xml version="1.0" encoding="UTF-8"?>
<svg xmlns="http://www.w3.org/2000/svg" width="512" height="110" viewBox="0 0 512 110">
  <defs>
    <style>
      .cls-1 {
        fill: none;
      }

      .cls-2 {
        fill: #fff;
      }
    </style>
  </defs>
  <g id="White">
    <g>
      <path class="cls-2" d="M356.5,65.25c-.24-.28-3.49,2.6-4.26,2.86-3.6,1.21-8.27-2.8-8.95-6.32-1.23-.14-1.84,1.13-2.92,1.73-6.33,3.5-11.62,1.46-16-3.82-6.09-7.35-2.27-15.86.52-23.81-1.15-1.8-2.53-3.49-2.78-5.72-.85-.11-.55,0-.73.48-2.44,6.67-4.21,14.51-7.25,20.88-1.11,2.33-2.83,3.2-2.09,6.42-3.86.26-5.57-2.39-4.58-5.99l-5.85-18.67c-1.12,1.12-1.22,2.85-2.07,4.35-1.77,3.14-5.85,6.26-6.81,9.52-.44,1.51.35,2.83-1.54,3.67-1.09.48-2.85.83-3.81-.01-.87-.76-3.34-10.21-3.67-11.95-.96-5.02-1.11-10.21-1.55-15.3-1.28.62-1.71,2.14-2.8,2.93-.87.64-2.58.84-2.93,1.24-.49.55-.7,3.83-1.15,5.1-1.11,3.14-5.08,7.73-8.57,8.1-1.68.17-5.49-.11-4.65-2.56.25-.74,3.47-1.12,4.59-1.67,3.16-1.57,6.96-7.11,4.59-10.37-3.02-4.15-10.44-.58-13.19,2.47-2.32,2.56-4.53,7.94-2.91,11.2,1.9,3.83,13.51,11.46,17.31,14.99,13.15,12.25,4.71,30.36-8.72,38.17-6.6,3.83-12.29,6.05-18.88.9-7.29-5.7-7.55-13.13-6.39-21.65.5-3.69,2.72-13.01,5.16-15.68,1.98-2.16,4.53,1.41,4.99,3.39,1.25,5.29-2.64,10.67-2.48,16.07.42,14.21,15.16,14.07,20,2.71,2.96-6.96,2.08-13.73-3.74-18.69-8.46-7.2-20.88-12.94-17.29-27,2.84-11.1,25.41-23.7,30.69-7.87,2.41.41,6.96-8.12,8.12-7.31.56,2.35,2.92,3.43,3.59,5.62,1.22,3.97.56,8.61,2.49,12.44,2.33-4.93,3.57-10.18,6.9-14.63.9-1.2,4.43-5.5,5.71-2.82.23,3.1,1.7,6.1.87,9.25l4.76,14.46c.9.1.55,0,.7-.51,2.4-8.27,3.99-17.58,10.74-23.65,3.27-2.94,2.92,2.5,3.38,4.29.57,2.21,1.99,6.08,2.98,8.13.19.4.4.71.78.96l4.16-5.56c4-4.67,7.74-6.85,11.83-.67,1.2-.58,3.87-1.9,4.59-.12.79,1.94,1.54,7.38,1.81,9.65.84,7.22.57,14.66,1.4,21.87.26,2.3.33,5.49,3.31,5.41,1.95-.06,2.12-3.44,2.24-5.06.61-8.01-.13-16.31.33-24.31.12-2.08.67-7.4,1.75-9.04,2.32-3.53,6.04,4.61,6.27,6.61,1.33,11.73-.74,24.39-1.07,36.11-.03,1.01.02,3.09,1.23,3.31l11.81.69c1.24.19,3.5.65,4.35,1.55s1.39,3.83,2.61,4.02c.89.14,4.5-1.27,4.69-2.28l-2.12-35.42c.41-1.51.17-9.34,2.64-9.14,1.59.13,1.48,8.42,1.56,9.83.73,13.39-.14,27.07,2.25,40.47.67.79.53-.52,1.47-.97,1.84-.9,7.03.7,9.35.93,2.48.25,4.98.39,7.43.04-.58-3.76-1.66-7.54-2.04-11.33-.9-9.01.99-17.79,5.58-25.59,4.78-8.11,12.59-12.54,21.09-5.94,1.53,1.19,4.52,5.74,6.11,5.74,3.28,0,3.58-8.57,9.3-7.25,3.04.7,2.59,6.83,3.32,9.53.64,2.38,1.91,4.74,2.59,7.14,1.3,4.56,1.83,9.42,3.54,13.82,1.36-4.81,1.63-10.11,3.7-14.71.58-1.29,3.17-5.87,4.55-5.73,1.95.21,3.11,1.95,3.75,3.58,2.27,5.78,3.34,13.38,5.19,19.47.15.49-.22.61.7.51l5.95-36.95c1.43-5.23,3.71-9.82,7.26-13.92,1.02-1.18,6.4-6.8,7.95-5.71.67,1.93.92,4.02.74,6.06-.39,4.35-5.6,8.63-6.86,13.28-3,11.1-6.53,22.15-9.38,33.34-1.69,6.67-2.7,14.52-4.79,20.91-.46,1.41-1.22,4.41-3.21,3.56-4.35-1.87-6.4-17.3-7.91-21.62-.51.41-.58,1.11-.71,1.72-1.42,6.33-2.07,15.74-5.77,20.97-2.33,3.29-7.85,1.52-8.6-2.4-1.23-6.51-1.3-14.07-2.15-20.77-1.09-8.63-3.55-17.1-2.74-25.91-1,.04-1.14,1.08-1.96,1.68-1.13.83-2.69,1.1-3.95,1.62,3.62,7.95,6.07,17.94,5.71,26.73-.6,14.89-14.79,26.68-28.82,17.53-.71-.02-.63.82-1.12,1.04-.41.19-8.23,1.38-8.94,1.4-6.55.17-13.61-4.44-20.17-5.18l-.42-.83c.91-1.06.94-7.72-.23-7.83-5.86,3.04-10.56,4.66-17.27,3.32-2.46-.49-5.8-2.21-8.1-2.34-1.49-.08-6.07,2.04-6.07-.16v-13.02ZM336.13,24.74c-1.47,1.26-7.2,10.1-8.17,12.15-2.6,5.5-4.89,15.5-.64,20.56,4.46,5.3,13.63,6.01,14.26-2.43.6-8.08-2.04-18.08-1.79-26.37-.54-2.17-.55-6.56-3.66-3.91ZM426.82,39.04c-3.87.14-7.38,5.9-8.81,9.06-4.1,9.11-4.37,22.36,1.41,30.8,4.64,6.78,9.96,7.21,17.19,3.77,7.7-3.66,5.24-19.02,3.78-25.78-1.29-5.96-6.13-18.12-13.57-17.86Z"/>
      <path class="cls-2" d="M142.56,79.83c3.17.13,6.77-1.33,9.9-1.04,4.62.43,5.23,3.88,11.73,1.66,5.17-1.77,3.8-3.36,2.79-7.85-1.85-8.24-7.76-22.27-6.35-30.1.37-2.08,6.99-2.76,9.01-3.14,2.98-.57,6.58-1.35,9.56-1.55,5.19-.35,9.8.92,14.93.69,1.16-.05,4.69-.85,5.48-.64s2.44,1.73.77,2.38c-2.6,1.02-6.65.94-9.42,1.69-7.4-.35-14.58,1.46-21.86,2.46l4.56,16.66c1.83,1.33,14.04-.56,17.34-.32,1.26.09,5.75,1.01,5.75,2.6.03.59-.38.78-.89.87-2.89.52-7.56-.21-10.76,0-3.64.25-7.25,1.43-10.94,1.39.53,4.38,1.43,9.01-.08,13.29-.37,1.05-1.1,2-1.48,3.03-.54,1.46-.11,4.8-2.6,2.94-1.01-.76-.84-2.36-2.25-2.26-4.65,1.15-9.42,1.61-14.09,2.62-4.16.9-11.86,3.84-15.5,3.97-4.47.16-10.37-4.95-11.08-9.33-.75-4.67.22-10.36-.14-15.14l-.53-5.02c-2.78,2.16-5.12,4.95-8.55,6.12-.81,2.75-.87,5.9-1.72,8.62-1.65,5.24-5.95,10.01-10.24,13.38-5.04,3.96-14.25,5.98-20.19,3.2-9.24-4.32-9.22-15.35-7.66-24.11.34-1.92,1.1-3.78,1.54-5.67-2.88-1.39-3.75-4.08-5.63-6.4-2.51,8.01-3.54,17.29-6.51,25.09-2.22,5.81-8.74,12.74-15.62,10.24-2.84-1.03-2.22-2.81-3.03-4.96-2.02-5.41-4.39-10.73-6.44-16.13-3.03,5.63-3.44,16.71-7.87,21.31-2.13,2.21-7.67-.52-9.05-3.01-5.18-10.96-10.38-23.3-12.63-35.3-.28-1.48-1.04-6.92-.78-8.1.89-4.02,5.93-1.36,7.92.27,3.92,3.2,9.29,13.88,9.99,18.84.35,2.44-1.06,3.25-.96,4.73.14,1.92,2,4.41,2.08,6.47.92.09.56.02.69-.52,1.63-7,2.88-22.51,9.06-26.72,3.71-2.53,1.9,1.98,2.05,4.51.2,3.39,2.63,8.71,4.02,11.96,2.67,6.26,5.88,12.34,10.06,17.72,1.43-.74,5.18-12.13,5.82-14.32,2.41-8.19,2.47-16.58,4.59-24.24.38-1.38,2.21-6.15,4.31-4.81.21.14,1.29,4.05,1.61,4.81.89,2.08,1.99,4.01,2.86,6.17,1.29,3.21,1.41,7.25,4.78,9.11,3.43-10.23,10.54-17.85,22.2-14.56,4.68,1.32,8.85,5.19,11.02,9.47,1.01,1.99,1.43,4.2,2.54,6.14,4.34-4.08,9.99-7.39,10.26-14.05.1-2.59-2.36-5.64-.2-7.84,2-2.05,3.8-.22,5.23,1.4,5.6,6.32,8,13.62,9.44,21.82,1.11,6.32,1.7,13.13,1.15,19.51ZM95.91,48.71c-2.23.06-4.33,1.21-5.59,3.02-1.78,2.55-.92,3.74-1.27,6.37-.13.98-.72,1.92-.91,2.91-2.09,10.77-5.81,27.44,11.78,22.2,6.1-1.82,6.99-6.92,7.56-12.58.35-3.47.72-8.13-.42-11.38-1.73-4.92-5.16-10.71-11.15-10.54Z"/>
      <path class="cls-2" d="M224.17,72.89c-.65-3.31-1.86-6.84-1.4-10.26.2-1.49,1.29-2.22,2.01-.59.64,5.62,3.45,12.18,3.87,17.66.26,3.39-1.64,5.15-4.48,2.74l-6.93-9.56c-.08,1.66-.93,11.51-2.27,11.81-4.22-2.29-1.04-6.6-.85-10.23.14-2.63-1.53-12.2-.36-13.57.31-.37.86-.39,1.32-.28,3.71.9,6.35,9.72,9.1,12.28Z"/>
      <path class="cls-2" d="M228.59,52.45c1.77-.52,2.79,3.27,2.9,4.62.12,1.55-1.3,9.28-2.62,9.56-.58.08-.71-.42-.89-.84-.44-.99-1.04-7.96-1.04-9.41,0-1.06.51-3.61,1.66-3.95Z"/>
      <path class="cls-2" d="M210.54,68.62c-1.5,1.49-3.17-4.06-3.47-5.2-.51-1.94-1.24-4.73-.08-6.51,2.42,1.84,6.02,9.25,3.56,11.71Z"/>
    </g>
  </g>
  <g id="Border">
    <rect class="cls-1" width="512" height="110"/>
  </g>
</svg>